<svg width="120" height="44" viewBox="0 0 120 44" fill="none" xmlns="http://www.w3.org/2000/svg">
<path fill-rule="evenodd" clip-rule="evenodd" d="M38.9297 30.9227C33.1771 30.9227 28.5237 26.288 28.5237 20.5444C28.5237 14.8007 33.1771 10.166 38.9297 10.166C44.6823 10.166 49.3421 14.8086 49.3421 20.5444C49.3421 26.2802 44.6887 30.9227 38.9297 30.9227ZM44.1359 20.5444C44.1359 17.6765 41.8092 15.3513 38.9297 15.3513C36.0502 15.3513 33.7299 17.6765 33.7299 20.5444C33.7299 23.4123 36.0566 25.7296 38.9297 25.7296C41.8028 25.7296 44.1359 23.4123 44.1359 20.5444ZM75.3745 20.5444C75.3745 14.8149 80.0359 10.166 85.7726 10.166C87.6764 10.166 89.4567 10.6661 90.9867 11.5542V10.6882H96.1929V30.4006H90.9867V29.5282C89.4567 30.4148 87.6764 30.9227 85.7726 30.9227C80.0343 30.9227 75.3745 26.266 75.3745 20.5444ZM90.9867 20.5444C90.9867 17.6765 88.66 15.3513 85.7805 15.3513C82.9011 15.3513 80.5807 17.6765 80.5807 20.5444C80.5807 23.4123 82.9074 25.7296 85.7805 25.7296C88.6537 25.7296 90.9867 23.4123 90.9867 20.5444ZM98.792 20.5444C98.792 14.8149 103.46 10.166 109.212 10.166C111.1 10.166 112.882 10.6661 114.412 11.5542V10.6882H119.618V30.4006H114.412V29.5282C112.882 30.4148 111.102 30.9227 109.212 30.9227C103.46 30.9227 98.792 26.266 98.792 20.5444ZM114.411 20.5444C114.411 17.6765 112.084 15.3513 109.204 15.3513C106.325 15.3513 104.005 17.6765 104.005 20.5444C104.005 23.4123 106.323 25.7296 109.204 25.7296C112.085 25.7296 114.411 23.4123 114.411 20.5444ZM51.9554 11.204H57.1553V20.5444C57.1553 23.4123 59.4899 25.7296 62.3615 25.7296C65.233 25.7296 67.5676 23.4123 67.5676 20.5444V11.204H72.7675V30.9164C72.7675 36.6459 68.0998 41.2948 62.3615 41.2948H54.5482V36.1095H62.3615C65.2346 36.1095 67.5676 33.7843 67.5676 30.9164V29.5361C66.0313 30.4085 64.2574 30.9164 62.3615 30.9164C56.6088 30.9164 51.9554 26.2739 51.9554 20.546V11.2056V11.204Z" fill="#F7931A"/>
<path d="M15.6057 35.6284C19.038 37.5877 23.0024 38.7045 27.225 38.7045C31.4476 38.7045 35.412 37.5892 38.8443 35.6284L41.4513 38.7329C37.4869 42.0441 32.4454 43.8898 27.225 43.8898C22.0046 43.8898 16.9774 42.0441 13.0129 38.7329L15.6057 35.6284ZM85.882 35.6284C89.3 37.5735 93.2644 38.6903 97.487 38.6903C101.71 38.6903 105.674 37.5751 109.106 35.6284L111.713 38.725C107.749 42.0441 102.715 43.8898 97.487 43.8898C92.2587 43.8898 87.2394 42.0441 83.2749 38.725L85.882 35.6284Z" fill="#68D825"/>
<path d="M4.33531 24.4393C4.27943 24.8641 4.03353 25.5347 3.09463 25.5347C3.13934 25.5683 0.143799 25.5235 0.143799 25.5235V29.5921C0.143799 29.5921 5.9225 29.5921 6.69374 29.5921V34.0768L9.97989 34.0992V29.5921C10.8853 29.6145 11.7571 29.5809 12.6066 29.5921V34.1104H15.9039V29.5921C21.4479 29.2903 25.3376 27.9043 25.8294 22.6733C26.2318 18.4483 24.2534 16.5593 21.1126 15.7881C23.0239 14.8156 24.2199 13.0943 23.9516 10.2105H23.9404C23.5716 6.28728 20.1625 4.946 15.9039 4.55479V0.143867H12.6066V4.55479C11.7347 4.54361 10.8629 4.54361 9.97989 4.55479V0.13269L6.72727 0.110335V4.55479C6.00074 4.55479 0.143799 4.55479 0.143799 4.55479V8.03096C0.143799 8.03096 2.30103 8.04213 2.46869 8.04213C3.7988 8.05331 4.23472 8.83573 4.35767 9.50637V15.721M9.97989 8.32157C11.8353 8.32157 17.8041 7.7627 17.7929 11.6636C17.7929 15.4192 11.8465 14.9498 9.97989 14.9386V8.32157ZM9.97989 25.5906V18.2918C12.2154 18.303 19.3242 17.6882 19.313 21.9803C19.313 26.1048 12.2154 25.6018 9.97989 25.5906Z" fill="#F7931A"/>
</svg>
